<mxfile host="Electron" modified="2023-07-01T22:21:32.089Z" agent="Mozilla/5.0 (Windows NT 10.0; Win64; x64) AppleWebKit/537.36 (KHTML, like Gecko) draw.io/21.5.0 Chrome/112.0.5615.204 Electron/24.5.1 Safari/537.36" etag="p9D0AFGNGm95n5Ecjre-" version="21.5.0" type="device">
  <diagram name="Page-1" id="wn3zZZbSx_dE16h-i8y4">
    <mxGraphModel dx="1436" dy="606" grid="0" gridSize="10" guides="1" tooltips="1" connect="1" arrows="1" fold="1" page="0" pageScale="1" pageWidth="850" pageHeight="1100" math="0" shadow="0">
      <root>
        <mxCell id="0" />
        <mxCell id="1" parent="0" />
        <mxCell id="CV8gKpkOMrnM0878RdZT-1" value="Read data&amp;nbsp;&lt;br&gt;(CSV or DB)" style="rounded=1;whiteSpace=wrap;html=1;fontStyle=1;fontSize=14;" parent="1" vertex="1">
          <mxGeometry x="-80" y="320" width="120" height="60" as="geometry" />
        </mxCell>
        <mxCell id="CV8gKpkOMrnM0878RdZT-2" value="" style="endArrow=classic;html=1;rounded=0;exitX=1;exitY=0.5;exitDx=0;exitDy=0;entryX=0;entryY=0.5;entryDx=0;entryDy=0;fontStyle=1;fontSize=14;" parent="1" source="CV8gKpkOMrnM0878RdZT-1" target="CV8gKpkOMrnM0878RdZT-24" edge="1">
          <mxGeometry width="50" height="50" relative="1" as="geometry">
            <mxPoint x="250" y="430" as="sourcePoint" />
            <mxPoint x="150" y="340" as="targetPoint" />
          </mxGeometry>
        </mxCell>
        <mxCell id="CV8gKpkOMrnM0878RdZT-3" value="Training model&amp;nbsp;" style="rounded=1;whiteSpace=wrap;html=1;fontStyle=1;fontSize=14;" parent="1" vertex="1">
          <mxGeometry x="290" y="260" width="120" height="60" as="geometry" />
        </mxCell>
        <mxCell id="CV8gKpkOMrnM0878RdZT-6" value="Predict Model" style="rounded=1;whiteSpace=wrap;html=1;fontStyle=1;fontSize=14;" parent="1" vertex="1">
          <mxGeometry x="290" y="410" width="120" height="60" as="geometry" />
        </mxCell>
        <mxCell id="CV8gKpkOMrnM0878RdZT-7" value="Calling Prometheus API (5s)" style="rounded=1;whiteSpace=wrap;html=1;fontStyle=1;fontSize=14;" parent="1" vertex="1">
          <mxGeometry x="-80" y="530" width="120" height="60" as="geometry" />
        </mxCell>
        <mxCell id="CV8gKpkOMrnM0878RdZT-8" value="" style="endArrow=classic;html=1;rounded=0;exitX=0.5;exitY=1;exitDx=0;exitDy=0;entryX=0.5;entryY=0;entryDx=0;entryDy=0;fontStyle=1;fontSize=14;" parent="1" source="CV8gKpkOMrnM0878RdZT-3" target="CV8gKpkOMrnM0878RdZT-6" edge="1">
          <mxGeometry width="50" height="50" relative="1" as="geometry">
            <mxPoint x="300" y="530" as="sourcePoint" />
            <mxPoint x="350" y="480" as="targetPoint" />
            <Array as="points" />
          </mxGeometry>
        </mxCell>
        <mxCell id="CV8gKpkOMrnM0878RdZT-11" value="True" style="text;html=1;strokeColor=none;fillColor=none;align=center;verticalAlign=middle;whiteSpace=wrap;rounded=0;fontStyle=1;fontSize=14;" parent="1" vertex="1">
          <mxGeometry x="350" y="490" width="60" height="30" as="geometry" />
        </mxCell>
        <mxCell id="CV8gKpkOMrnM0878RdZT-12" value="available" style="rhombus;whiteSpace=wrap;html=1;fontStyle=1;fontSize=14;" parent="1" vertex="1">
          <mxGeometry x="310" y="520" width="80" height="80" as="geometry" />
        </mxCell>
        <mxCell id="CV8gKpkOMrnM0878RdZT-14" value="" style="endArrow=classic;html=1;rounded=0;exitX=1;exitY=0.5;exitDx=0;exitDy=0;entryX=0;entryY=0.5;entryDx=0;entryDy=0;startArrow=none;fontStyle=1;fontSize=14;" parent="1" source="CV8gKpkOMrnM0878RdZT-25" target="CV8gKpkOMrnM0878RdZT-12" edge="1">
          <mxGeometry width="50" height="50" relative="1" as="geometry">
            <mxPoint x="170" y="630" as="sourcePoint" />
            <mxPoint x="220" y="580" as="targetPoint" />
          </mxGeometry>
        </mxCell>
        <mxCell id="CV8gKpkOMrnM0878RdZT-15" value="" style="endArrow=classic;html=1;rounded=0;entryX=0.5;entryY=1;entryDx=0;entryDy=0;exitX=0.5;exitY=0;exitDx=0;exitDy=0;fontStyle=1;fontSize=14;" parent="1" source="CV8gKpkOMrnM0878RdZT-12" target="CV8gKpkOMrnM0878RdZT-6" edge="1">
          <mxGeometry width="50" height="50" relative="1" as="geometry">
            <mxPoint x="350" y="520" as="sourcePoint" />
            <mxPoint x="400" y="620" as="targetPoint" />
          </mxGeometry>
        </mxCell>
        <mxCell id="CV8gKpkOMrnM0878RdZT-16" value="" style="endArrow=classic;html=1;rounded=0;exitX=0.5;exitY=1;exitDx=0;exitDy=0;entryX=1;entryY=0.5;entryDx=0;entryDy=0;fontStyle=1;fontSize=14;" parent="1" source="CV8gKpkOMrnM0878RdZT-12" target="CV8gKpkOMrnM0878RdZT-12" edge="1">
          <mxGeometry width="50" height="50" relative="1" as="geometry">
            <mxPoint x="340" y="720" as="sourcePoint" />
            <mxPoint x="420" y="620" as="targetPoint" />
            <Array as="points">
              <mxPoint x="350" y="620" />
              <mxPoint x="440" y="620" />
              <mxPoint x="440" y="560" />
            </Array>
          </mxGeometry>
        </mxCell>
        <mxCell id="CV8gKpkOMrnM0878RdZT-17" value="False" style="text;html=1;strokeColor=none;fillColor=none;align=center;verticalAlign=middle;whiteSpace=wrap;rounded=0;fontStyle=1;fontSize=14;" parent="1" vertex="1">
          <mxGeometry x="365" y="620" width="60" height="30" as="geometry" />
        </mxCell>
        <mxCell id="CV8gKpkOMrnM0878RdZT-18" value="" style="endArrow=classic;html=1;rounded=0;exitX=1;exitY=0.25;exitDx=0;exitDy=0;entryX=0;entryY=0.5;entryDx=0;entryDy=0;fontStyle=1;fontSize=14;" parent="1" source="CV8gKpkOMrnM0878RdZT-6" target="CV8gKpkOMrnM0878RdZT-20" edge="1">
          <mxGeometry width="50" height="50" relative="1" as="geometry">
            <mxPoint x="470" y="420" as="sourcePoint" />
            <mxPoint x="490" y="390" as="targetPoint" />
          </mxGeometry>
        </mxCell>
        <mxCell id="CV8gKpkOMrnM0878RdZT-19" value="" style="endArrow=classic;html=1;rounded=0;exitX=1;exitY=0.75;exitDx=0;exitDy=0;entryX=0;entryY=0.5;entryDx=0;entryDy=0;fontStyle=1;fontSize=14;" parent="1" source="CV8gKpkOMrnM0878RdZT-6" target="CV8gKpkOMrnM0878RdZT-21" edge="1">
          <mxGeometry width="50" height="50" relative="1" as="geometry">
            <mxPoint x="460" y="540" as="sourcePoint" />
            <mxPoint x="500" y="490" as="targetPoint" />
          </mxGeometry>
        </mxCell>
        <mxCell id="CV8gKpkOMrnM0878RdZT-20" value="Prediction" style="rounded=1;whiteSpace=wrap;html=1;fontStyle=1;fontSize=14;" parent="1" vertex="1">
          <mxGeometry x="510" y="350" width="120" height="60" as="geometry" />
        </mxCell>
        <mxCell id="CV8gKpkOMrnM0878RdZT-21" value="Analysis&amp;nbsp;" style="rounded=1;whiteSpace=wrap;html=1;fontStyle=1;fontSize=14;" parent="1" vertex="1">
          <mxGeometry x="510" y="470" width="120" height="60" as="geometry" />
        </mxCell>
        <mxCell id="CV8gKpkOMrnM0878RdZT-24" value="Pre-Process" style="rounded=1;whiteSpace=wrap;html=1;fontStyle=1;fontSize=14;" parent="1" vertex="1">
          <mxGeometry x="110" y="320" width="120" height="60" as="geometry" />
        </mxCell>
        <mxCell id="CV8gKpkOMrnM0878RdZT-26" value="" style="endArrow=none;html=1;rounded=0;exitX=1;exitY=0.5;exitDx=0;exitDy=0;entryX=0;entryY=0.5;entryDx=0;entryDy=0;fontStyle=1;fontSize=14;" parent="1" source="CV8gKpkOMrnM0878RdZT-7" target="CV8gKpkOMrnM0878RdZT-25" edge="1">
          <mxGeometry width="50" height="50" relative="1" as="geometry">
            <mxPoint x="39.99999999999977" y="560" as="sourcePoint" />
            <mxPoint x="310" y="560" as="targetPoint" />
          </mxGeometry>
        </mxCell>
        <mxCell id="CV8gKpkOMrnM0878RdZT-25" value="Pre-Process" style="rounded=1;whiteSpace=wrap;html=1;fontStyle=1;fontSize=14;" parent="1" vertex="1">
          <mxGeometry x="100" y="530" width="120" height="60" as="geometry" />
        </mxCell>
        <mxCell id="CV8gKpkOMrnM0878RdZT-27" value="" style="endArrow=classic;html=1;rounded=0;entryX=0;entryY=0.5;entryDx=0;entryDy=0;exitX=1;exitY=0.5;exitDx=0;exitDy=0;fontStyle=1;fontSize=14;" parent="1" source="CV8gKpkOMrnM0878RdZT-24" target="CV8gKpkOMrnM0878RdZT-3" edge="1">
          <mxGeometry width="50" height="50" relative="1" as="geometry">
            <mxPoint x="160" y="470" as="sourcePoint" />
            <mxPoint x="210" y="420" as="targetPoint" />
          </mxGeometry>
        </mxCell>
        <mxCell id="CV8gKpkOMrnM0878RdZT-29" value="" style="endArrow=none;html=1;rounded=0;fontStyle=1;fontSize=14;" parent="1" edge="1">
          <mxGeometry width="50" height="50" relative="1" as="geometry">
            <mxPoint x="720" y="530" as="sourcePoint" />
            <mxPoint x="720" y="330" as="targetPoint" />
          </mxGeometry>
        </mxCell>
        <mxCell id="CV8gKpkOMrnM0878RdZT-30" value="" style="endArrow=classic;html=1;rounded=0;exitX=1;exitY=0.5;exitDx=0;exitDy=0;fontStyle=1;fontSize=14;" parent="1" source="CV8gKpkOMrnM0878RdZT-20" edge="1">
          <mxGeometry width="50" height="50" relative="1" as="geometry">
            <mxPoint x="770" y="500" as="sourcePoint" />
            <mxPoint x="720" y="380" as="targetPoint" />
          </mxGeometry>
        </mxCell>
        <mxCell id="CV8gKpkOMrnM0878RdZT-31" value="" style="endArrow=classic;html=1;rounded=0;exitX=1;exitY=0.5;exitDx=0;exitDy=0;fontStyle=1;fontSize=14;" parent="1" source="CV8gKpkOMrnM0878RdZT-21" edge="1">
          <mxGeometry width="50" height="50" relative="1" as="geometry">
            <mxPoint x="770" y="500" as="sourcePoint" />
            <mxPoint x="720" y="500" as="targetPoint" />
          </mxGeometry>
        </mxCell>
        <mxCell id="CV8gKpkOMrnM0878RdZT-32" value="" style="endArrow=classic;html=1;rounded=0;entryX=0;entryY=0.5;entryDx=0;entryDy=0;fontStyle=1;fontSize=14;" parent="1" target="CV8gKpkOMrnM0878RdZT-33" edge="1">
          <mxGeometry width="50" height="50" relative="1" as="geometry">
            <mxPoint x="720" y="430" as="sourcePoint" />
            <mxPoint x="810" y="430" as="targetPoint" />
          </mxGeometry>
        </mxCell>
        <mxCell id="CV8gKpkOMrnM0878RdZT-33" value="Post-Process" style="rounded=1;whiteSpace=wrap;html=1;fontStyle=1;fontSize=14;" parent="1" vertex="1">
          <mxGeometry x="780" y="400" width="120" height="60" as="geometry" />
        </mxCell>
        <mxCell id="CV8gKpkOMrnM0878RdZT-34" value="" style="endArrow=classic;html=1;rounded=0;exitX=1;exitY=0.5;exitDx=0;exitDy=0;entryX=0;entryY=0.5;entryDx=0;entryDy=0;fontStyle=1;fontSize=14;" parent="1" source="CV8gKpkOMrnM0878RdZT-33" target="CV8gKpkOMrnM0878RdZT-35" edge="1">
          <mxGeometry width="50" height="50" relative="1" as="geometry">
            <mxPoint x="970" y="510" as="sourcePoint" />
            <mxPoint x="1010" y="380" as="targetPoint" />
          </mxGeometry>
        </mxCell>
        <mxCell id="CV8gKpkOMrnM0878RdZT-35" value="Retrain" style="rounded=1;whiteSpace=wrap;html=1;fontStyle=1;fontSize=14;" parent="1" vertex="1">
          <mxGeometry x="970" y="330" width="120" height="60" as="geometry" />
        </mxCell>
        <mxCell id="CV8gKpkOMrnM0878RdZT-36" value="Scale handing" style="rounded=1;whiteSpace=wrap;html=1;fontStyle=1;fontSize=14;" parent="1" vertex="1">
          <mxGeometry x="970" y="480" width="120" height="60" as="geometry" />
        </mxCell>
        <mxCell id="CV8gKpkOMrnM0878RdZT-37" value="" style="endArrow=classic;html=1;rounded=0;exitX=1;exitY=0.5;exitDx=0;exitDy=0;entryX=0;entryY=0.5;entryDx=0;entryDy=0;fontStyle=1;fontSize=14;" parent="1" source="CV8gKpkOMrnM0878RdZT-33" target="CV8gKpkOMrnM0878RdZT-36" edge="1">
          <mxGeometry width="50" height="50" relative="1" as="geometry">
            <mxPoint x="950" y="550" as="sourcePoint" />
            <mxPoint x="1000" y="500" as="targetPoint" />
          </mxGeometry>
        </mxCell>
        <mxCell id="CV8gKpkOMrnM0878RdZT-39" value="Decision" style="rhombus;whiteSpace=wrap;html=1;fontStyle=1;fontSize=14;" parent="1" vertex="1">
          <mxGeometry x="1160" y="470" width="80" height="80" as="geometry" />
        </mxCell>
        <mxCell id="CV8gKpkOMrnM0878RdZT-41" value="" style="endArrow=classic;html=1;rounded=0;exitX=1;exitY=0.5;exitDx=0;exitDy=0;entryX=0;entryY=0.5;entryDx=0;entryDy=0;fontStyle=1;fontSize=14;" parent="1" source="CV8gKpkOMrnM0878RdZT-36" target="CV8gKpkOMrnM0878RdZT-39" edge="1">
          <mxGeometry width="50" height="50" relative="1" as="geometry">
            <mxPoint x="1140" y="590" as="sourcePoint" />
            <mxPoint x="1190" y="540" as="targetPoint" />
          </mxGeometry>
        </mxCell>
        <mxCell id="CV8gKpkOMrnM0878RdZT-42" value="Decision" style="rhombus;whiteSpace=wrap;html=1;fontStyle=1;fontSize=14;" parent="1" vertex="1">
          <mxGeometry x="1150" y="320" width="80" height="80" as="geometry" />
        </mxCell>
        <mxCell id="CV8gKpkOMrnM0878RdZT-43" value="" style="endArrow=classic;html=1;rounded=0;entryX=0;entryY=0.5;entryDx=0;entryDy=0;exitX=1;exitY=0.5;exitDx=0;exitDy=0;fontStyle=1;fontSize=14;" parent="1" source="CV8gKpkOMrnM0878RdZT-35" target="CV8gKpkOMrnM0878RdZT-42" edge="1">
          <mxGeometry width="50" height="50" relative="1" as="geometry">
            <mxPoint x="950" y="550" as="sourcePoint" />
            <mxPoint x="1000" y="500" as="targetPoint" />
          </mxGeometry>
        </mxCell>
        <mxCell id="CV8gKpkOMrnM0878RdZT-44" value="" style="endArrow=classic;html=1;rounded=0;exitX=0.5;exitY=0;exitDx=0;exitDy=0;entryX=0.5;entryY=0;entryDx=0;entryDy=0;fontStyle=1;fontSize=14;" parent="1" source="CV8gKpkOMrnM0878RdZT-42" target="CV8gKpkOMrnM0878RdZT-3" edge="1">
          <mxGeometry width="50" height="50" relative="1" as="geometry">
            <mxPoint x="1240" y="450" as="sourcePoint" />
            <mxPoint x="1290" y="400" as="targetPoint" />
            <Array as="points">
              <mxPoint x="1190" y="230" />
              <mxPoint x="350" y="230" />
            </Array>
          </mxGeometry>
        </mxCell>
        <mxCell id="CV8gKpkOMrnM0878RdZT-46" value="" style="endArrow=classic;html=1;rounded=0;exitX=1;exitY=0.5;exitDx=0;exitDy=0;entryX=0.5;entryY=1;entryDx=0;entryDy=0;fontStyle=1;fontSize=14;" parent="1" source="CV8gKpkOMrnM0878RdZT-42" target="CV8gKpkOMrnM0878RdZT-42" edge="1">
          <mxGeometry width="50" height="50" relative="1" as="geometry">
            <mxPoint x="1390" y="400" as="sourcePoint" />
            <mxPoint x="1280" y="450" as="targetPoint" />
            <Array as="points">
              <mxPoint x="1280" y="360" />
              <mxPoint x="1280" y="440" />
              <mxPoint x="1190" y="440" />
            </Array>
          </mxGeometry>
        </mxCell>
        <mxCell id="CV8gKpkOMrnM0878RdZT-47" value="Prediction accuracy is below threshold" style="text;html=1;strokeColor=none;fillColor=none;align=center;verticalAlign=middle;whiteSpace=wrap;rounded=0;fontStyle=1;fontSize=14;" parent="1" vertex="1">
          <mxGeometry x="960" y="190" width="230" height="30" as="geometry" />
        </mxCell>
        <mxCell id="CV8gKpkOMrnM0878RdZT-48" value="Trigger API to scale out" style="rounded=1;whiteSpace=wrap;html=1;fontStyle=1;fontSize=14;" parent="1" vertex="1">
          <mxGeometry x="1355" y="480" width="120" height="60" as="geometry" />
        </mxCell>
        <mxCell id="CV8gKpkOMrnM0878RdZT-49" value="" style="endArrow=classic;html=1;rounded=0;entryX=0;entryY=0.5;entryDx=0;entryDy=0;exitX=1;exitY=0.5;exitDx=0;exitDy=0;fontStyle=1;fontSize=14;" parent="1" source="CV8gKpkOMrnM0878RdZT-39" target="CV8gKpkOMrnM0878RdZT-48" edge="1">
          <mxGeometry width="50" height="50" relative="1" as="geometry">
            <mxPoint x="1140" y="680" as="sourcePoint" />
            <mxPoint x="1190" y="630" as="targetPoint" />
          </mxGeometry>
        </mxCell>
        <mxCell id="CV8gKpkOMrnM0878RdZT-51" value="Density of normal &amp;gt; 0.8" style="text;html=1;strokeColor=none;fillColor=none;align=center;verticalAlign=middle;whiteSpace=wrap;rounded=0;fontStyle=1;fontSize=14;" parent="1" vertex="1">
          <mxGeometry x="1245" y="460" width="110" height="30" as="geometry" />
        </mxCell>
        <mxCell id="CV8gKpkOMrnM0878RdZT-53" value="" style="endArrow=classic;html=1;rounded=0;exitX=0.5;exitY=1;exitDx=0;exitDy=0;entryX=1;entryY=1;entryDx=0;entryDy=0;fontStyle=1;fontSize=14;" parent="1" source="CV8gKpkOMrnM0878RdZT-39" target="CV8gKpkOMrnM0878RdZT-39" edge="1">
          <mxGeometry width="50" height="50" relative="1" as="geometry">
            <mxPoint x="1290" y="610" as="sourcePoint" />
            <mxPoint x="1340" y="560" as="targetPoint" />
            <Array as="points">
              <mxPoint x="1200" y="600" />
              <mxPoint x="1260" y="600" />
              <mxPoint x="1260" y="530" />
            </Array>
          </mxGeometry>
        </mxCell>
        <mxCell id="CV8gKpkOMrnM0878RdZT-54" value="Skip" style="text;html=1;strokeColor=none;fillColor=none;align=center;verticalAlign=middle;whiteSpace=wrap;rounded=0;fontStyle=1;fontSize=14;" parent="1" vertex="1">
          <mxGeometry x="1200" y="560" width="60" height="30" as="geometry" />
        </mxCell>
        <mxCell id="CV8gKpkOMrnM0878RdZT-56" value="&lt;b&gt;Calculation Score Model&lt;/b&gt;" style="rounded=1;whiteSpace=wrap;html=1;fontSize=14;" parent="1" vertex="1">
          <mxGeometry x="510" y="260" width="120" height="60" as="geometry" />
        </mxCell>
        <mxCell id="CV8gKpkOMrnM0878RdZT-57" value="" style="endArrow=none;html=1;rounded=0;fontSize=14;exitX=0;exitY=0.5;exitDx=0;exitDy=0;entryX=1;entryY=0.5;entryDx=0;entryDy=0;startArrow=classic;startFill=1;endFill=0;" parent="1" source="CV8gKpkOMrnM0878RdZT-56" target="CV8gKpkOMrnM0878RdZT-3" edge="1">
          <mxGeometry width="50" height="50" relative="1" as="geometry">
            <mxPoint x="310" y="380" as="sourcePoint" />
            <mxPoint x="360" y="330" as="targetPoint" />
          </mxGeometry>
        </mxCell>
        <mxCell id="CV8gKpkOMrnM0878RdZT-58" value="" style="endArrow=classic;html=1;rounded=0;fontSize=14;entryX=1;entryY=0.5;entryDx=0;entryDy=0;exitX=0.5;exitY=0;exitDx=0;exitDy=0;" parent="1" source="CV8gKpkOMrnM0878RdZT-35" target="CV8gKpkOMrnM0878RdZT-56" edge="1">
          <mxGeometry width="50" height="50" relative="1" as="geometry">
            <mxPoint x="980" y="440" as="sourcePoint" />
            <mxPoint x="1030" y="390" as="targetPoint" />
            <Array as="points">
              <mxPoint x="1030" y="290" />
            </Array>
          </mxGeometry>
        </mxCell>
        <mxCell id="CV8gKpkOMrnM0878RdZT-59" value="Query" style="text;html=1;strokeColor=none;fillColor=none;align=center;verticalAlign=middle;whiteSpace=wrap;rounded=0;fontSize=14;" parent="1" vertex="1">
          <mxGeometry x="850" y="260" width="60" height="30" as="geometry" />
        </mxCell>
        <mxCell id="5INrZIFeOoixkMwpOeZ4-2" value="Skip" style="text;html=1;strokeColor=none;fillColor=none;align=center;verticalAlign=middle;whiteSpace=wrap;rounded=0;fontStyle=1;fontSize=14;" parent="1" vertex="1">
          <mxGeometry x="1220" y="390" width="60" height="30" as="geometry" />
        </mxCell>
      </root>
    </mxGraphModel>
  </diagram>
</mxfile>
